# xmcd CD database file
#
# Track frame offsets:
#	150
#	20793
#	34479
#	64440
#	90522
#	118893
#	152409
#	175628
#	194217
#	211804
#	233786
#	240460
#	266214
#	290726
#
# Disc length: 4241 seconds
#
# Revision: 0
# Processed by: cddbd v1.5.2PL0 Copyright (c) Steve Scherf et al.
# Submitted via: CDex 1.51
#
DISCID=d3108f0e
DTITLE=Denver and The Mile High Orchestra - Live! It Up
DYEAR=2006
DGENRE=Jazz
TTITLE0=One Time Show
TTITLE1=The Real Deal
TTITLE2=Never Gonna Say
TTITLE3=Act The Scat
TTITLE4=It Is Well
TTITLE5=Can't Get Enough
TTITLE6=Acoustic Medley
TTITLE7=All Hail The Power
TTITLE8=Glory Forever
TTITLE9=Voice Of God
TTITLE10=Stand Introduction
TTITLE11=Stand
TTITLE12=Get Down
TTITLE13=Solid Rock
EXTD=YEAR: 2006
EXTT0=
EXTT1=
EXTT2=
EXTT3=
EXTT4=
EXTT5=
EXTT6=
EXTT7=
EXTT8=
EXTT9=
EXTT10=
EXTT11=
EXTT12=
EXTT13=
PLAYORDER=
